<?xml version="1.0" encoding="UTF-8"?>
<svg width="202px" height="60px" viewBox="0 0 202 60" version="1.1" xmlns="http://www.w3.org/2000/svg" xmlns:xlink="http://www.w3.org/1999/xlink">
    <title>Google_Play_Store_badge_EN</title>
    <g id="Website" stroke="none" stroke-width="1" fill="none" fill-rule="evenodd">
        <g transform="translate(-1194, -971)" fill-rule="nonzero" id="Google_Play_Store_badge_EN">
            <g transform="translate(1194, 971)">
                <path d="M194.518415,60 L7.48158539,60 C3.36668537,60 0,56.6250281 0,52.5 L0,7.5 C0,3.37497187 3.36668537,0 7.48158539,0 L194.518415,0 C198.633315,0 202,3.37497187 202,7.5 L202,52.5 C202,56.6250281 198.633315,60 194.518415,60" id="path11" fill="#100F0D"></path>
                <path d="M194.518415,0 L7.48158539,0 C3.36668537,0 0,3.37497187 0,7.5 L0,52.5 C0,56.6250281 3.36668537,60 7.48158539,60 L194.518415,60 C198.633315,60 202,56.6250281 202,52.5 L202,7.5 C202,3.37497187 198.633315,0 194.518415,0 L194.518415,0 Z M194.518415,1.19939248 C197.983859,1.19939248 200.802991,4.02602565 200.802991,7.5 L200.802991,52.5 C200.802991,55.9739743 197.983972,58.8006075 194.518415,58.8006075 L7.48158539,58.8006075 C4.01614063,58.8006075 1.19768213,55.9739743 1.19768213,52.5 L1.19768213,7.5 C1.19768213,4.02602565 4.01614063,1.19939248 7.48158539,1.19939248 L194.518415,1.19939248" id="path13" fill="#A2A2A1"></path>
                <path d="M160.008739,45 L162.800824,45 L162.800824,26.2469062 L160.008739,26.2469062 L160.008739,45 Z M185.157595,33.0027001 L181.957005,41.1326033 L181.861276,41.1326033 L178.539481,33.0027001 L175.531921,33.0027001 L180.514669,44.3654841 L177.673204,50.6864547 L180.585035,50.6864547 L188.26268,33.0032626 L185.157595,33.0027001 Z M169.322424,42.8698717 C168.409674,42.8698717 167.133332,42.4110178 167.133332,41.2772819 C167.133332,39.8299332 168.72246,39.2750694 170.093084,39.2750694 C171.320057,39.2750694 171.899146,39.5399685 172.644331,39.9020701 C172.427363,41.6393385 170.935569,42.8697817 169.322536,42.8697817 L169.322424,42.8698717 Z M169.660596,32.5925036 C167.639059,32.5925036 165.545696,33.4854609 164.679307,35.4636991 L167.15727,36.500795 C167.686957,35.4636991 168.673002,35.1262357 169.708517,35.1262357 C171.152424,35.1262357 172.620348,35.9939811 172.644252,37.538521 L172.644252,37.731272 C172.138492,37.4417685 171.055124,37.0076764 169.732421,37.0076764 C167.059969,37.0076764 164.341168,38.4788757 164.341168,41.229232 C164.341168,43.7382697 166.531831,45.3548226 168.985778,45.3548226 C170.862206,45.3548226 171.899068,44.510444 172.546952,43.5209143 L172.644252,43.5209143 L172.644252,44.9692755 L175.340608,44.9692755 L175.340608,37.7792207 C175.340608,34.449925 172.859727,32.5925036 169.660596,32.5925036 L169.660596,32.5925036 Z M152.404636,35.2854946 L148.433386,35.2854946 L148.433386,28.8578714 L152.404636,28.8578714 C154.492051,28.8578714 155.677051,30.5899647 155.677051,32.0716268 C155.677051,33.5248256 154.491938,35.2854946 152.404636,35.2854946 Z M152.332811,26.2473562 L145.642535,26.2473562 L145.642535,45.00045 L148.433498,45.00045 L148.433498,37.8960099 L152.332923,37.8960099 C155.427347,37.8960099 158.469361,35.6506788 158.469361,32.0723018 C158.469361,28.4945999 155.427347,26.2481437 152.332923,26.2481437 L152.332811,26.2473562 Z M115.851315,42.8730218 C113.922364,42.8730218 112.307985,41.2534313 112.307985,39.0310508 C112.307985,36.7827946 113.922364,35.140366 115.851315,35.140366 C117.755687,35.140366 119.250209,36.7829071 119.250209,39.0310508 C119.250209,41.2534313 117.755687,42.8730218 115.851315,42.8730218 Z M119.057291,34.0524638 L118.960777,34.0524638 C118.33426,33.3035101 117.128341,32.6268282 115.610476,32.6268282 C112.427843,32.6268282 109.511186,35.4305108 109.511186,39.0310508 C109.511186,42.6070652 112.427843,45.3861097 115.610476,45.3861097 C117.128341,45.3861097 118.334216,44.7092927 118.960777,43.9365109 L119.057291,43.9365109 L119.057291,44.8540614 C119.057291,47.2957099 117.755687,48.599955 115.658397,48.599955 C113.947503,48.599955 112.886737,47.3677117 112.45242,46.3287482 L110.018113,47.3435911 C110.716589,49.0345084 112.572278,51.1135603 115.658509,51.1135603 C118.937546,51.1135603 121.709767,49.179862 121.709767,44.4672317 L121.709767,33.0133203 L119.057404,33.0133203 L119.057291,34.0524638 Z M123.638605,44.9994375 L126.433721,44.9994375 L126.433721,26.2463437 L123.638605,26.2463437 L123.638605,44.9994375 Z M130.556252,38.8131328 C130.484315,36.3480837 132.461635,35.0917648 133.883209,35.0917648 C134.99258,35.0917648 135.931793,35.6478099 136.246364,36.4447236 L130.556252,38.8131328 Z M139.234285,36.6861547 C138.704149,35.261194 137.089186,32.6268282 133.786694,32.6268282 C130.507658,32.6268282 127.783919,35.2124803 127.783919,39.0065252 C127.783919,42.5831021 130.484315,45.3862222 134.09947,45.3862222 C137.016127,45.3862222 138.704239,43.5985525 139.403747,42.5590265 L137.234071,41.1088652 C136.510602,42.1723656 135.522727,42.8731343 134.09947,42.8731343 C132.678008,42.8731343 131.665051,42.220483 131.015146,40.939661 L139.523605,37.4116853 L139.234285,36.6861547 Z M71.4393263,34.5843771 L71.4393263,37.2908573 L77.8996498,37.2908573 C77.7067772,38.8132453 77.2005679,39.9246606 76.4290326,40.6981175 C75.4885962,41.6402723 74.0180688,42.679742 71.4392141,42.679742 C67.4615672,42.679742 64.3521051,39.4658741 64.3521051,35.4785495 C64.3521051,31.4912248 67.4615672,28.2769069 71.4392141,28.2769069 C73.584762,28.2769069 75.1513329,29.1229056 76.3085012,30.2103803 L78.2134353,28.30087 C76.5978214,26.7545189 74.4527224,25.5704268 71.4392141,25.5704268 C65.9903888,25.5704268 61.4103096,30.0169879 61.4103096,35.4785495 C61.4103096,40.9395485 65.9903888,45.3862222 71.4392141,45.3862222 C74.3797751,45.3862222 76.5979336,44.419463 78.3332933,42.6071777 C80.1172471,40.818833 80.6718709,38.3057451 80.6718709,36.2755194 C80.6718709,35.6479224 80.6232431,35.0679142 80.5268742,34.5843771 L71.4393263,34.5843771 Z M88.0174377,42.8730218 C86.0884871,42.8730218 84.4250646,41.2780695 84.4250646,39.0065252 C84.4250646,36.7107928 86.0884871,35.1404785 88.0174377,35.1404785 C89.9456027,35.1404785 91.6090251,36.7107928 91.6090251,39.0065252 C91.6090251,41.2780695 89.9456027,42.8730218 88.0174377,42.8730218 Z M88.0174377,32.6268282 C84.4968897,32.6268282 81.6287148,35.3091202 81.6287148,39.0065252 C81.6287148,42.679742 84.4968897,45.3862222 88.0174377,45.3862222 C91.536639,45.3862222 94.405375,42.679742 94.405375,39.0065252 C94.405375,35.3091202 91.536639,32.6268282 88.0174377,32.6268282 L88.0174377,32.6268282 Z M101.952613,42.8730218 C100.025009,42.8730218 98.3610255,41.2780695 98.3610255,39.0065252 C98.3610255,36.7107928 100.025121,35.1404785 101.952613,35.1404785 C103.881564,35.1404785 105.544425,36.7107928 105.544425,39.0065252 C105.544425,41.2780695 103.881564,42.8730218 101.952613,42.8730218 Z M101.952613,32.6268282 C98.4334116,32.6268282 95.5652368,35.3091202 95.5652368,39.0065252 C95.5652368,42.679742 98.4334116,45.3862222 101.952613,45.3862222 C105.473161,45.3862222 108.341336,42.679742 108.341336,39.0065252 C108.341336,35.3091202 105.473161,32.6268282 101.952613,32.6268282" id="path35" fill="#FFFFFF"></path>
                <path d="M30.9952998,29.1359784 L15.0658581,46.0856521 C15.0664574,46.0891397 15.0676537,46.0920648 15.0682149,46.0956649 C15.5567597,47.9362109 17.2337391,49.2914198 19.2239654,49.2914198 C20.0195621,49.2914198 20.7665198,49.0757969 21.4071092,48.6972699 L21.4579815,48.6673892 L39.3895455,38.2946299 L30.9961191,29.1357759" id="path37" fill="#EB3131"></path>
                <path d="M47.1121599,26.2502813 L47.0968971,26.2398185 L39.3552827,21.740831 L30.6333691,29.5210755 L39.3855839,38.2937073 L47.0863478,33.839496 C48.4364336,33.1088465 49.3529882,31.6820296 49.3529882,30.0366759 C49.3529882,28.4031351 48.4487673,26.9834621 47.1120477,26.2503938" id="path39" fill="#F6B60B"></path>
                <path d="M15.0636136,13.9154729 C14.9678506,14.2694742 14.917517,14.6402723 14.917517,15.0253244 L14.917517,44.9769482 C14.917517,45.3612803 14.9672558,45.7333383 15.0642196,46.0860797 L31.5435716,29.5695417 L15.0642196,13.9159004" id="path41" fill="#5778C5"></path>
                <path d="M31.1131377,30.001125 L39.3587617,21.7376809 L21.4473985,11.3273457 C20.7963496,10.9364434 20.0364859,10.7108415 19.2234042,10.7108415 C17.233178,10.7108415 15.5539315,12.0685255 15.065297,13.911209 C15.0646977,13.9130091 15.0646977,13.9142466 15.0646977,13.9158216 L31.1130996,30.0014738" id="path43" fill="#3BAD49"></path>
                <path d="M70.9154189,14.6714918 L66.5503658,14.6714918 L66.5503658,15.7543426 L69.8213219,15.7543426 C69.7324385,16.6379959 69.381708,17.3317445 68.7902065,17.8356446 C68.1987163,18.339646 67.4434875,18.5926986 66.5503883,18.5926986 C65.5707512,18.5926986 64.7407346,18.2505438 64.0605292,17.570903 C63.3940717,16.8771544 63.0551586,16.0192642 63.0551586,14.9857009 C63.0551586,13.9522051 63.3940717,13.0943036 64.0605292,12.4006113 C64.740757,11.7209593 65.5707624,11.3810658 66.5503883,11.3810658 C67.0531522,11.3810658 67.5324158,11.4677717 67.9718502,11.6576652 C68.4114642,11.8474124 68.7644505,12.1123116 69.0403708,12.4522163 L69.8703762,11.620168 C69.4939009,11.1911723 69.0170277,10.8631141 68.4253467,10.6240231 C67.8338564,10.3849209 67.2166663,10.270168 66.5502648,10.270168 C65.2433862,10.270168 64.1352609,10.7248144 63.230378,11.631902 C62.3255511,12.541206 61.8719874,13.6615653 61.8719874,14.9857234 C61.8719874,16.3098815 62.3255174,17.4326596 63.230378,18.3397697 C64.1352048,19.2466662 65.2433862,19.7015038 66.5502648,19.7015038 C67.9226838,19.7015038 69.016893,19.2608078 69.8585924,18.3654204 C70.5997143,17.6202243 70.9784342,16.6124016 70.9784342,15.35147 C70.9784342,15.1381647 70.9527006,14.910774 70.9152843,14.6716718 L70.9154189,14.6714918 Z M72.6064491,10.471503 L72.6064491,19.499775 L77.8644892,19.499775 L77.8644892,18.3911273 L73.7637297,18.3911273 L73.7637297,15.5271432 L77.4624935,15.5271432 L77.4624935,14.4442924 L73.7637297,14.4442924 L73.7637297,11.5825583 L77.8644892,11.5825583 L77.8644892,10.471503 L72.6064491,10.471503 Z M85.2375515,11.5825921 L85.2375515,10.4715368 L79.0488163,10.4715368 L79.0488163,11.5825921 L81.5645997,11.5825921 L81.5645997,19.4997525 L82.7218803,19.4997525 L82.7218803,11.5825921 L85.2375515,11.5825921 Z M90.8404638,10.4715368 L89.6831832,10.4715368 L89.6831832,19.499775 L90.8404638,19.499775 L90.8404638,10.4715368 Z M98.4792786,11.5825921 L98.4792786,10.4715368 L92.2906557,10.4715368 L92.2906557,11.5825921 L94.8062147,11.5825921 L94.8062147,19.4997525 L95.9634952,19.4997525 L95.9634952,11.5825921 L98.4792786,11.5825921 Z M110.157577,11.6458861 C109.264422,10.7247469 108.170269,10.2700893 106.863278,10.2700893 C105.554043,10.2700893 104.459946,10.7247356 103.566734,11.6318233 C102.673579,12.5271769 102.234156,13.6497862 102.234156,14.9856446 C102.234156,16.321503 102.673624,17.4442811 103.566734,18.339691 C104.45989,19.2465874 105.554043,19.701425 106.863278,19.701425 C108.158485,19.701425 109.264366,19.2466212 110.157577,18.339691 C111.050733,17.4443374 111.490156,16.3216155 111.490156,14.9856446 C111.490156,13.6614865 111.050688,12.541071 110.157577,11.6458861 L110.157577,11.6458861 Z M104.396762,12.4005325 C105.063074,11.7208805 105.881408,11.380987 106.863278,11.380987 C107.842915,11.380987 108.66126,11.7208918 109.315878,12.4005325 C109.98219,13.0684842 110.309431,13.940246 110.309431,14.9856221 C110.309431,16.0333721 109.98219,16.9027826 109.315878,17.5708243 C108.661238,18.2504763 107.842904,18.5926198 106.863278,18.5926198 C105.881396,18.5926198 105.063051,18.250465 104.396762,17.5708243 C103.744367,16.888776 103.417125,16.0333608 103.417125,14.9856221 C103.417125,13.9402685 103.744367,13.0825246 104.396762,12.4005325 L104.396762,12.4005325 Z M114.239707,13.8771319 L114.190664,12.1355884 L114.239707,12.1355884 L118.817542,19.499685 L120.026222,19.499685 L120.026222,10.4714468 L118.868942,10.4714468 L118.868942,15.7542414 L118.917985,17.4957849 L118.868942,17.4957849 L114.492217,10.4714468 L113.082427,10.4714468 L113.082427,19.499685 L114.239707,19.499685 L114.239707,13.8771319 Z" id="path33" stroke="#FFFFFF" stroke-width="0.3" fill="#FFFFFF"></path>
            </g>
        </g>
    </g>
</svg>