<?xml version="1.0" encoding="UTF-8"?>
<svg width="203px" height="60px" viewBox="0 0 203 60" version="1.1" xmlns="http://www.w3.org/2000/svg" xmlns:xlink="http://www.w3.org/1999/xlink">
    <title>Download_on_the_App_Store_Badge</title>
    <g id="Website" stroke="none" stroke-width="1" fill="none" fill-rule="evenodd">
        <g transform="translate(-966, -971)" fill-rule="nonzero" id="Download_on_the_App_Store_Badge">
            <g transform="translate(966, 971)">
                <path d="M195.777711,60 L7.11101481,60 C3.19085926,60 0,56.808 0,52.9005 L0,7.089 C0,3.18 3.19085926,0 7.11101481,0 L195.777711,0 C199.696363,0 203,3.18 203,7.089 L203,52.9005 C203,56.808 199.696363,60 195.777711,60 L195.777711,60 Z" id="Path" fill="#A6A6A6"></path>
                <path d="M201.544415,52.902 C201.544415,56.076 198.967067,58.647 195.779215,58.647 L7.11101481,58.647 C3.92466667,58.647 1.3382963,56.076 1.3382963,52.902 L1.3382963,7.0875 C1.3382963,3.915 3.92466667,1.335 7.11101481,1.335 L195.777711,1.335 C198.967067,1.335 201.544415,3.915 201.544415,7.0875 L201.544415,52.902 L201.544415,52.902 Z" id="Path" fill="#000000"></path>
                <g id="Group" transform="translate(19.2352, 9.3255)" fill="#FFFFFF">
                    <path d="M26.0683512,20.3505 C26.0247438,15.516 30.0366253,13.164 30.2200772,13.0545 C27.9479809,9.75 24.4263068,9.2985 23.1887586,9.2625 C20.2309735,8.952 17.3619068,11.028 15.8551957,11.028 C14.3184105,11.028 11.9981957,9.2925 9.49753641,9.3435 C6.27961049,9.393 3.26919567,11.2515 1.61812901,14.1375 C-1.78926359,20.022 0.751995674,28.6695 4.01653641,33.426 C5.64955864,35.7555 7.55775864,38.3565 10.0554105,38.265 C12.498929,38.1645 13.4116772,36.711 16.3604401,36.711 C19.2821364,36.711 20.1392475,38.265 22.6865216,38.2065 C25.3089809,38.1645 26.9600475,35.8665 28.535929,33.516 C30.4230772,30.846 31.1809438,28.2165 31.2110179,28.0815 C31.149366,28.0605 26.1179735,26.145 26.0683512,20.3505 Z" id="Path"></path>
                    <path d="M21.2564994,6.1335 C22.5707364,4.494 23.4699512,2.2635 23.2203364,0 C21.3181512,0.084 18.939292,1.3125 17.5694179,2.916 C16.3574327,4.329 15.274766,6.645 15.5544549,8.823 C17.6912179,8.982 19.8851216,7.7475 21.2564994,6.1335 Z" id="Path"></path>
                </g>
                <g id="Group" transform="translate(63.7721, 27.0015)" fill="#FFFFFF">
                    <path d="M16.8941111,20.2545 L13.4792,20.2545 L11.6085926,14.391 L5.10657778,14.391 L3.32468889,20.2545 L0,20.2545 L6.44186667,0.2925 L10.4206667,0.2925 L16.8941111,20.2545 Z M11.0447037,11.931 L9.35303704,6.7185 C9.1740963,6.186 8.83877037,4.932 8.34405185,2.958 L8.2839037,2.958 C8.08691852,3.807 7.76963704,5.061 7.33356296,6.7185 L5.67197037,11.931 L11.0447037,11.931 L11.0447037,11.931 Z" id="Shape"></path>
                    <path d="M33.4604148,12.8805 C33.4604148,15.3285 32.7972815,17.2635 31.4710148,18.684 C30.2830889,19.9485 28.8079556,20.58 27.0471185,20.58 C25.146437,20.58 23.7810741,19.899 22.9495259,18.537 L22.8893778,18.537 L22.8893778,26.1195 L19.6834815,26.1195 L19.6834815,10.599 C19.6834815,9.06 19.6428815,7.4805 19.5646889,5.8605 L22.3841333,5.8605 L22.5630741,8.142 L22.6232222,8.142 C23.6923556,6.423 25.3148519,5.565 27.4922148,5.565 C29.1944074,5.565 30.6154074,6.2355 31.7522074,7.578 C32.8920148,8.922 33.4604148,10.689 33.4604148,12.8805 Z M30.1943704,12.9975 C30.1943704,11.5965 29.8785926,10.4415 29.2440296,9.5325 C28.5508222,8.5845 27.6200296,8.1105 26.4531556,8.1105 C25.6622074,8.1105 24.943437,8.3745 24.3013556,8.895 C23.6577704,9.42 23.2367333,10.1055 23.0397481,10.9545 C22.9405037,11.3505 22.8908815,11.6745 22.8908815,11.9295 L22.8908815,14.3295 C22.8908815,15.3765 23.2126741,16.26 23.8562593,16.9815 C24.4998444,17.703 25.3359037,18.063 26.364437,18.063 C27.5719111,18.063 28.5117259,17.598 29.1838815,16.671 C29.8575407,15.7425 30.1943704,14.5185 30.1943704,12.9975 Z" id="Shape"></path>
                    <path d="M50.0567926,12.8805 C50.0567926,15.3285 49.3936593,17.2635 48.0658889,18.684 C46.8794667,19.9485 45.4043333,20.58 43.6434963,20.58 C41.7428148,20.58 40.3774519,19.899 39.5474074,18.537 L39.4872593,18.537 L39.4872593,26.1195 L36.281363,26.1195 L36.281363,10.599 C36.281363,9.06 36.240763,7.4805 36.1625704,5.8605 L38.9820148,5.8605 L39.1609556,8.142 L39.2211037,8.142 C40.2887333,6.423 41.9112296,5.565 44.0900963,5.565 C45.7907852,5.565 47.2117852,6.2355 48.3515926,7.578 C49.4868889,8.922 50.0567926,10.689 50.0567926,12.8805 Z M46.7907481,12.9975 C46.7907481,11.5965 46.4734667,10.4415 45.8389037,9.5325 C45.1456963,8.5845 44.2179111,8.1105 43.0495333,8.1105 C42.2570815,8.1105 41.5398148,8.3745 40.8962296,8.895 C40.2526444,9.42 39.8331111,10.1055 39.6361259,10.9545 C39.5383852,11.3505 39.4872593,11.6745 39.4872593,11.9295 L39.4872593,14.3295 C39.4872593,15.3765 39.8090519,16.26 40.4496296,16.9815 C41.0932148,17.7015 41.9292741,18.063 42.9608148,18.063 C44.1682889,18.063 45.1081037,17.598 45.7802593,16.671 C46.4539185,15.7425 46.7907481,14.5185 46.7907481,12.9975 Z" id="Shape"></path>
                    <path d="M68.6124963,14.6565 C68.6124963,16.3545 68.0215407,17.736 66.8351185,18.8025 C65.5314074,19.968 63.716437,20.55 61.3841926,20.55 C59.2308889,20.55 57.504637,20.136 56.1979185,19.3065 L56.9407481,16.641 C58.3482148,17.49 59.8925185,17.916 61.575163,17.916 C62.782637,17.916 63.7224519,17.643 64.3976148,17.1 C65.0697704,16.557 65.4050963,15.828 65.4050963,14.919 C65.4050963,14.109 65.1284148,13.4265 64.5735481,12.873 C64.0216889,12.3195 63.0999185,11.805 61.8127481,11.3295 C58.3091185,10.026 56.5588074,8.1165 56.5588074,5.6055 C56.5588074,3.9645 57.1723185,2.619 58.4008444,1.572 C59.6248593,0.5235 61.2578815,0 63.2999111,0 C65.1208963,0 66.6336222,0.3165 67.8410963,0.948 L67.0396222,3.555 C65.9118444,2.943 64.6367037,2.637 63.2096889,2.637 C62.0819111,2.637 61.2007407,2.9145 60.5691852,3.4665 C60.0353704,3.96 59.7677111,4.5615 59.7677111,5.274 C59.7677111,6.063 60.072963,6.7155 60.6864741,7.2285 C61.2202889,7.7025 62.1901778,8.2155 63.5976444,8.769 C65.3193852,9.4605 66.584,10.269 67.3975037,11.196 C68.208,12.12 68.6124963,13.2765 68.6124963,14.6565 Z" id="Path"></path>
                    <path d="M79.2121037,8.2605 L75.6784,8.2605 L75.6784,15.249 C75.6784,17.0265 76.3009333,17.9145 77.5490074,17.9145 C78.1219185,17.9145 78.5970889,17.865 78.9730148,17.766 L79.0617333,20.1945 C78.4301778,20.43 77.5986296,20.5485 76.5685926,20.5485 C75.3024741,20.5485 74.313037,20.163 73.5987778,19.3935 C72.8875259,18.6225 72.5296444,17.3295 72.5296444,15.513 L72.5296444,8.2575 L70.4244593,8.2575 L70.4244593,5.8575 L72.5296444,5.8575 L72.5296444,3.222 L75.6784,2.274 L75.6784,5.8575 L79.2121037,5.8575 L79.2121037,8.2605 Z" id="Path"></path>
                    <path d="M95.1558741,12.939 C95.1558741,15.1515 94.5213111,16.968 93.2551926,18.3885 C91.9274222,19.851 90.1650815,20.58 87.9681704,20.58 C85.8509556,20.58 84.1653037,19.8795 82.9082074,18.4785 C81.6511111,17.0775 81.022563,15.309 81.022563,13.1775 C81.022563,10.947 81.6691556,9.12 82.9668519,7.6995 C84.2615407,6.2775 86.0088444,5.5665 88.2057556,5.5665 C90.3229704,5.5665 92.0266667,6.267 93.3123333,7.6695 C94.542363,9.03 95.1558741,10.7865 95.1558741,12.939 Z M91.8296815,13.0425 C91.8296815,11.715 91.5454815,10.5765 90.969563,9.627 C90.2974074,8.478 89.3365407,7.905 88.0914741,7.905 C86.8028,7.905 85.8238889,8.4795 85.1517333,9.627 C84.5758148,10.578 84.2916148,11.7345 84.2916148,13.1025 C84.2916148,14.43 84.5758148,15.5685 85.1517333,16.5165 C85.8449407,17.6655 86.8133259,18.2385 88.0629037,18.2385 C89.2869185,18.2385 90.2477852,17.6535 90.9409926,16.4865 C91.5319481,15.519 91.8296815,14.3685 91.8296815,13.0425 Z" id="Shape"></path>
                    <path d="M105.576541,8.673 C105.259259,8.6145 104.920926,8.5845 104.566052,8.5845 C103.438274,8.5845 102.566126,9.009 101.952615,9.8595 C101.4188,10.6095 101.151141,11.5575 101.151141,12.702 L101.151141,20.2545 L97.9467481,20.2545 L97.9768222,10.3935 C97.9768222,8.7345 97.9362222,7.224 97.8565259,5.862 L100.648904,5.862 L100.766193,8.616 L100.854911,8.616 C101.193244,7.6695 101.727059,6.9075 102.457859,6.336 C103.172119,5.8215 103.943519,5.565 104.775067,5.565 C105.071296,5.565 105.338956,5.586 105.576541,5.6235 L105.576541,8.673 Z" id="Path"></path>
                    <path d="M119.914356,12.3765 C119.914356,12.9495 119.876763,13.4325 119.797067,13.827 L110.179378,13.827 C110.21697,15.249 110.681615,16.3365 111.574815,17.0865 C112.385311,17.757 113.433393,18.093 114.720563,18.093 C116.14457,18.093 117.44377,17.8665 118.612148,17.412 L119.114385,19.632 C117.749022,20.226 116.137052,20.5215 114.27697,20.5215 C112.039459,20.5215 110.283133,19.8645 109.004985,18.552 C107.729844,17.2395 107.09077,15.477 107.09077,13.266 C107.09077,11.0955 107.684733,9.288 108.874163,7.8465 C110.11923,6.3075 111.801874,5.538 113.919089,5.538 C115.998711,5.538 117.573089,6.3075 118.642222,7.8465 C119.488807,9.069 119.914356,10.581 119.914356,12.3765 Z M116.857326,11.547 C116.878378,10.599 116.669363,9.78 116.234793,9.0885 C115.679926,8.199 114.827326,7.755 113.68,7.755 C112.631919,7.755 111.779319,8.1885 111.128215,9.0585 C110.5944,9.75 110.277119,10.5795 110.179378,11.5455 L116.857326,11.5455 L116.857326,11.547 Z" id="Shape"></path>
                </g>
                <g id="Group" transform="translate(65.6758, 9.834)" fill="#FFFFFF">
                    <path d="M8.0809037,5.1795 C8.0809037,6.945 7.5500963,8.274 6.48998519,9.1665 C5.50806667,9.99 4.11262963,10.4025 2.30517778,10.4025 C1.40897037,10.4025 0.642081481,10.3635 0,10.2855 L0,0.639 C0.837562963,0.504 1.73978519,0.435 2.71418519,0.435 C4.43592593,0.435 5.73362222,0.8085 6.60877778,1.5555 C7.58919259,2.4 8.0809037,3.6075 8.0809037,5.1795 Z M6.41931111,5.223 C6.41931111,4.0785 6.11556296,3.201 5.50806667,2.589 C4.90057037,1.9785 4.01338519,1.6725 2.84500741,1.6725 C2.34878519,1.6725 1.92624444,1.7055 1.57588148,1.7745 L1.57588148,9.108 C1.76985926,9.138 2.12473333,9.1515 2.6405037,9.1515 C3.84647407,9.1515 4.77726667,8.817 5.43288148,8.148 C6.0884963,7.479 6.41931111,6.504 6.41931111,5.223 Z" id="Shape"></path>
                    <path d="M16.8911037,6.7215 C16.8911037,7.809 16.579837,8.7 15.9573037,9.399 C15.3046963,10.1175 14.4400667,10.476 13.3604074,10.476 C12.3198444,10.476 11.4913037,10.1325 10.8732815,9.4425 C10.256763,8.754 9.9485037,7.8855 9.9485037,6.8385 C9.9485037,5.7435 10.2657852,4.845 10.9033556,4.1475 C11.5409259,3.45 12.398037,3.1005 13.4776963,3.1005 C14.5182593,3.1005 15.3543185,3.444 15.9873778,4.1325 C16.5888593,4.8015 16.8911037,5.6655 16.8911037,6.7215 Z M15.2565778,6.7725 C15.2565778,6.12 15.1152296,5.5605 14.834037,5.094 C14.5032222,4.53 14.032563,4.248 13.4205556,4.248 C12.7874963,4.248 12.3063111,4.53 11.9754963,5.094 C11.6928,5.5605 11.5529556,6.129 11.5529556,6.801 C11.5529556,7.4535 11.6943037,8.013 11.9754963,8.4795 C12.316837,9.0435 12.7920074,9.3255 13.4055185,9.3255 C14.007,9.3255 14.479163,9.039 14.819,8.4645 C15.1107185,7.989 15.2565778,7.425 15.2565778,6.7725 Z" id="Shape"></path>
                    <path d="M28.7042,3.2445 L26.486237,10.3155 L25.0426815,10.3155 L24.1239185,7.245 C23.8908444,6.4785 23.7013778,5.7165 23.5540148,4.9605 L23.5254444,4.9605 C23.3886074,5.7375 23.1991407,6.498 22.9555407,7.245 L21.979637,10.3155 L20.5195407,10.3155 L18.4339037,3.2445 L20.0533926,3.2445 L20.8548667,6.606 C21.0488444,7.401 21.208237,8.1585 21.3360519,8.8755 L21.3646222,8.8755 C21.4819111,8.2845 21.6758889,7.5315 21.949563,6.621 L22.9555407,3.246 L24.2397037,3.246 L25.2035778,6.549 C25.4366519,7.3545 25.6261185,8.13 25.7719778,8.877 L25.8155852,8.877 C25.9223481,8.1495 26.0832444,7.374 26.2967704,6.549 L27.1568889,3.246 L28.7042,3.246 L28.7042,3.2445 Z" id="Path"></path>
                    <path d="M36.8738222,10.3155 L35.2979407,10.3155 L35.2979407,6.2655 C35.2979407,5.0175 34.8227704,4.3935 33.8694222,4.3935 C33.4017704,4.3935 33.0243407,4.5645 32.7311185,4.908 C32.4409037,5.2515 32.2935407,5.6565 32.2935407,6.12 L32.2935407,10.314 L30.7176593,10.314 L30.7176593,5.265 C30.7176593,4.644 30.6981111,3.9705 30.6605185,3.2415 L32.0454296,3.2415 L32.1191111,4.347 L32.1627185,4.347 C32.3461704,4.0035 32.6198444,3.72 32.9792296,3.4935 C33.4062815,3.2295 33.8844593,3.096 34.4077481,3.096 C35.0693778,3.096 35.6197333,3.309 36.0573111,3.7365 C36.6016519,4.26 36.8738222,5.0415 36.8738222,6.0795 L36.8738222,10.3155 L36.8738222,10.3155 Z" id="Path"></path>
                    <polygon id="Path" points="41.2195259 10.3155 39.6451481 10.3155 39.6451481 0 41.2195259 0"></polygon>
                    <path d="M50.4973778,6.7215 C50.4973778,7.809 50.1861111,8.7 49.5635778,9.399 C48.9109704,10.1175 48.044837,10.476 46.9666815,10.476 C45.9246148,10.476 45.0960741,10.1325 44.4795556,9.4425 C43.863037,8.754 43.5547778,7.8855 43.5547778,6.8385 C43.5547778,5.7435 43.8720593,4.845 44.5096296,4.1475 C45.1472,3.45 46.0043111,3.1005 47.0824667,3.1005 C48.1245333,3.1005 48.9590889,3.444 49.5936519,4.1325 C50.1951333,4.8015 50.4973778,5.6655 50.4973778,6.7215 Z M48.8613481,6.7725 C48.8613481,6.12 48.72,5.5605 48.4388074,5.094 C48.1094963,4.53 47.6373333,4.248 47.0268296,4.248 C46.3922667,4.248 45.9110815,4.53 45.5817704,5.094 C45.2990741,5.5605 45.1592296,6.129 45.1592296,6.801 C45.1592296,7.4535 45.3005778,8.013 45.5817704,8.4795 C45.9231111,9.0435 46.3982815,9.3255 47.0117926,9.3255 C47.6132741,9.3255 48.0839333,9.039 48.4237704,8.4645 C48.7169926,7.989 48.8613481,7.425 48.8613481,6.7725 Z" id="Shape"></path>
                    <path d="M58.124163,10.3155 L56.7091778,10.3155 L56.5918889,9.501 L56.5482815,9.501 C56.0640889,10.1505 55.3738889,10.476 54.4776815,10.476 C53.8085333,10.476 53.2672,10.2615 52.8596963,9.8355 C52.4897852,9.4485 52.3048296,8.967 52.3048296,8.3955 C52.3048296,7.5315 52.6657185,6.873 53.3920074,6.417 C54.1167926,5.961 55.1363037,5.7375 56.449037,5.748 L56.449037,5.616 C56.449037,4.6845 55.9588296,4.2195 54.9769111,4.2195 C54.2776889,4.2195 53.6611704,4.395 53.1288593,4.743 L52.8085704,3.711 C53.4671926,3.3045 54.2806963,3.1005 55.2400593,3.1005 C57.0926222,3.1005 58.0219111,4.0755 58.0219111,6.0255 L58.0219111,8.6295 C58.0219111,9.336 58.0564963,9.8985 58.124163,10.3155 Z M56.4881333,7.8855 L56.4881333,6.795 C54.7498519,6.765 53.8807111,7.2405 53.8807111,8.22 C53.8807111,8.589 53.9799556,8.865 54.1829556,9.0495 C54.3859556,9.234 54.6445926,9.3255 54.9528519,9.3255 C55.2987037,9.3255 55.622,9.216 55.9167259,8.9985 C56.2129556,8.7795 56.3949037,8.502 56.4625704,8.1615 C56.4791111,8.085 56.4881333,7.992 56.4881333,7.8855 Z" id="Shape"></path>
                    <path d="M67.0787185,10.3155 L65.6802741,10.3155 L65.6065926,9.18 L65.5629852,9.18 C65.1163852,10.044 64.3555111,10.476 63.2863778,10.476 C62.4322741,10.476 61.7210222,10.1415 61.1571333,9.4725 C60.5932444,8.8035 60.3120519,7.935 60.3120519,6.8685 C60.3120519,5.724 60.6173037,4.797 61.2308148,4.089 C61.8247778,3.429 62.5525704,3.099 63.4187037,3.099 C64.3705481,3.099 65.0366889,3.4185 65.4156222,4.059 L65.4456963,4.059 L65.4456963,0 L67.0230815,0 L67.0230815,8.4105 C67.0230815,9.099 67.0411259,9.7335 67.0787185,10.3155 Z M65.4456963,7.3335 L65.4456963,6.1545 C65.4456963,5.9505 65.4306593,5.7855 65.4020889,5.6595 C65.3133704,5.2815 65.1224,4.9635 64.8321852,4.707 C64.538963,4.4505 64.1855926,4.3215 63.7780889,4.3215 C63.1901407,4.3215 62.7300074,4.554 62.3916741,5.0205 C62.0563481,5.487 61.8864296,6.0825 61.8864296,6.81 C61.8864296,7.509 62.0473259,8.076 62.3706222,8.5125 C62.711963,8.9775 63.1720963,9.21 63.7480148,9.21 C64.2652889,9.21 64.6788074,9.0165 64.9930815,8.628 C65.2968296,8.2695 65.4456963,7.8375 65.4456963,7.3335 Z" id="Shape"></path>
                    <path d="M80.5564148,6.7215 C80.5564148,7.809 80.2451481,8.7 79.6226148,9.399 C78.9700074,10.1175 78.1068815,10.476 77.0257185,10.476 C75.9866593,10.476 75.1581185,10.1325 74.5385926,9.4425 C73.9220741,8.754 73.6138148,7.8855 73.6138148,6.8385 C73.6138148,5.7435 73.9310963,4.845 74.5686667,4.1475 C75.206237,3.45 76.0633481,3.1005 77.1445111,3.1005 C78.1835704,3.1005 79.0211333,3.444 79.6526889,4.1325 C80.2541704,4.8015 80.5564148,5.6655 80.5564148,6.7215 Z M78.9233926,6.7725 C78.9233926,6.12 78.7820444,5.5605 78.5008519,5.094 C78.1685333,4.53 77.6993778,4.248 77.0858667,4.248 C76.4543111,4.248 75.9731259,4.53 75.6408074,5.094 C75.3581111,5.5605 75.2182667,6.129 75.2182667,6.801 C75.2182667,7.4535 75.3596148,8.013 75.6408074,8.4795 C75.9821481,9.0435 76.4573185,9.3255 77.0708296,9.3255 C77.6723111,9.3255 78.1459778,9.039 78.4858148,8.4645 C78.7760296,7.989 78.9233926,7.425 78.9233926,6.7725 Z" id="Shape"></path>
                    <path d="M89.0297852,10.3155 L87.4554074,10.3155 L87.4554074,6.2655 C87.4554074,5.0175 86.980237,4.3935 86.0253852,4.3935 C85.5577333,4.3935 85.1803037,4.5645 84.8885852,4.908 C84.5968667,5.2515 84.4510074,5.6565 84.4510074,6.12 L84.4510074,10.314 L82.8736222,10.314 L82.8736222,5.265 C82.8736222,4.644 82.8555778,3.9705 82.8179852,3.2415 L84.2013926,3.2415 L84.2750741,4.347 L84.3186815,4.347 C84.503637,4.0035 84.7773111,3.72 85.1351926,3.4935 C85.5637481,3.2295 86.0404222,3.096 86.5652148,3.096 C87.2253407,3.096 87.7756963,3.309 88.2132741,3.7365 C88.7591185,4.26 89.0297852,5.0415 89.0297852,6.0795 L89.0297852,10.3155 L89.0297852,10.3155 Z" id="Path"></path>
                    <path d="M99.6354074,4.422 L97.9001333,4.422 L97.9001333,7.857 C97.9001333,8.73 98.2083926,9.1665 98.8188963,9.1665 C99.1015926,9.1665 99.3361704,9.1425 99.5211259,9.093 L99.5617259,10.2855 C99.2504593,10.4025 98.8414519,10.461 98.3377111,10.461 C97.7151778,10.461 97.2309852,10.272 96.8806222,9.894 C96.5287556,9.516 96.3543259,8.88 96.3543259,7.9875 L96.3543259,4.422 L95.3182741,4.422 L95.3182741,3.2445 L96.3543259,3.2445 L96.3543259,1.9485 L97.8986296,1.4835 L97.8986296,3.243 L99.6339037,3.243 L99.6339037,4.422 L99.6354074,4.422 Z" id="Path"></path>
                    <path d="M107.977956,10.3155 L106.40057,10.3155 L106.40057,6.2955 C106.40057,5.028 105.9254,4.3935 104.973556,4.3935 C104.242756,4.3935 103.743526,4.761 103.469852,5.496 C103.423237,5.6505 103.39617,5.8395 103.39617,6.0615 L103.39617,10.314 L101.821793,10.314 L101.821793,0 L103.39617,0 L103.39617,4.2615 L103.426244,4.2615 C103.922467,3.486 104.633719,3.099 105.555489,3.099 C106.208096,3.099 106.747926,3.312 107.176481,3.7395 C107.710296,4.272 107.977956,5.064 107.977956,6.111 L107.977956,10.3155 L107.977956,10.3155 Z" id="Path"></path>
                    <path d="M116.583652,6.4455 C116.583652,6.7275 116.5626,6.9645 116.525007,7.158 L111.798867,7.158 C111.819919,7.857 112.045474,8.3895 112.483052,8.7585 C112.883037,9.0885 113.398807,9.2535 114.030363,9.2535 C114.729585,9.2535 115.367156,9.1425 115.94157,8.919 L116.188178,10.011 C115.516022,10.302 114.725074,10.4475 113.809319,10.4475 C112.711615,10.4475 111.846985,10.125 111.221444,9.48 C110.592896,8.835 110.28163,7.9695 110.28163,6.8835 C110.28163,5.817 110.571844,4.929 111.156785,4.221 C111.767289,3.465 112.592822,3.087 113.634889,3.087 C114.6544,3.087 115.428807,3.465 115.952096,4.221 C116.374637,4.821 116.583652,5.5635 116.583652,6.4455 Z M115.079948,6.039 C115.091978,5.5725 114.988222,5.1705 114.774696,4.8315 C114.501022,4.395 114.084496,4.176 113.520607,4.176 C113.006341,4.176 112.586807,4.389 112.266519,4.8165 C112.004874,5.157 111.849993,5.5635 111.798867,6.039 L115.079948,6.039 Z" id="Shape"></path>
                </g>
            </g>
        </g>
    </g>
</svg>