<?xml version="1.0" encoding="UTF-8"?>
<svg width="46px" height="40px" viewBox="0 0 46 40" version="1.1" xmlns="http://www.w3.org/2000/svg" xmlns:xlink="http://www.w3.org/1999/xlink">
    <title>Shape</title>
    <g id="Website" stroke="none" stroke-width="1" fill="none" fill-rule="evenodd">
        <g transform="translate(-302, -1264)" fill="#FFFFFF" id="Group-6">
            <g transform="translate(302, 1264)">
                <path d="M17.8888889,18.7234043 L45.1481481,18.7234043 C45.6186131,18.7234043 46,19.1044383 46,19.5744681 L46,39.1489362 C46,39.618966 45.6186131,40 45.1481481,40 L17.8888889,40 C17.4184239,40 17.037037,39.618966 17.037037,39.1489362 L17.037037,19.5744681 C17.037037,19.1044383 17.4184239,18.7234043 17.8888889,18.7234043 Z M18.7407407,20.4255319 L18.7407407,38.2978723 L44.2962963,38.2978723 L44.2962963,20.4255319 L18.7407407,20.4255319 Z M6.81481481,5.95744681 C6.81481481,2.63562043 9.892553,0 13.6296296,0 C17.3667063,0 20.4444444,2.63562043 20.4444444,5.95744681 L26.4074074,5.95744681 C26.8778724,5.95744681 27.2592593,6.33848085 27.2592593,6.80851064 L27.2592593,14.4680851 C27.2592593,14.9381149 26.8778724,15.3191489 26.4074074,15.3191489 C25.9369424,15.3191489 25.5555556,14.9381149 25.5555556,14.4680851 L25.5555556,7.65957447 L20.4444444,7.65957447 L20.4444444,11.9853302 C20.4444444,12.4553591 20.0630576,12.836394 19.5925926,12.836394 C19.1221276,12.836394 18.7407407,12.4553591 18.7407407,11.9853302 L18.7407407,7.65957447 L8.51851852,7.65957447 L8.51851852,11.9853302 C8.51851852,12.4553591 8.13713167,12.836394 7.66666667,12.836394 C7.19620167,12.836394 6.81481481,12.4553591 6.81481481,11.9853302 L6.81481481,7.65957447 L1.7037037,7.65957447 L1.7037037,38.2978723 L12.7777778,38.2978723 C13.2482428,38.2978723 13.6296296,38.6789064 13.6296296,39.1489362 C13.6296296,39.618966 13.2482428,40 12.7777778,40 L0.851851852,40 C0.381386852,40 0,39.618966 0,39.1489362 L0,6.80851064 C0,6.33848085 0.381386852,5.95744681 0.851851852,5.95744681 L6.81481481,5.95744681 Z M18.7407407,5.95744681 C18.7407407,3.6389183 16.4790596,1.70212766 13.6296296,1.70212766 C10.7801997,1.70212766 8.51851852,3.6389183 8.51851852,5.95744681 L18.7407407,5.95744681 Z M35.7777778,24.6808511 C35.7777778,24.2108213 36.1591646,23.8297872 36.6296296,23.8297872 C37.1000946,23.8297872 37.4814815,24.2108213 37.4814815,24.6808511 L37.4814815,26.4534153 C37.4814815,29.7436221 34.8117718,32.4108621 31.5185185,32.4108621 C28.2252652,32.4108621 25.5555556,29.7436221 25.5555556,26.4534153 L25.5555556,24.6808511 C25.5555556,24.2108213 25.9369424,23.8297872 26.4074074,23.8297872 C26.8778724,23.8297872 27.2592593,24.2108213 27.2592593,24.6808511 L27.2592593,26.4534153 C27.2592593,28.8035626 29.1661944,30.7087345 31.5185185,30.7087345 C33.8708427,30.7087345 35.7777778,28.8035626 35.7777778,26.4534153 L35.7777778,24.6808511 Z" id="Shape"></path>
            </g>
        </g>
    </g>
</svg>