<?xml version="1.0" encoding="UTF-8"?>
<svg width="46px" height="36px" viewBox="0 0 46 36" version="1.1" xmlns="http://www.w3.org/2000/svg" xmlns:xlink="http://www.w3.org/1999/xlink">
    <title>Shape</title>
    <g id="Website" stroke="none" stroke-width="1" fill="none" fill-rule="evenodd">
        <g transform="translate(-302, -1534)" fill="#FFFFFF" fill-rule="nonzero" id="Group-4">
            <g transform="translate(302, 1534)">
                <path d="M4.56768086,30.0279293 L4.56768086,30.0279293 L3.90047899,29.3490527 L13.9129683,19.1613656 L16.5485644,21.8430792 L6.53607509,32.0307663 L5.86887322,31.3518898 L5.86887322,31.3518898 L1.57022937,35.725751 C1.21085243,36.0914163 0.628413946,36.0914163 0.269532702,35.725751 C-0.0898442341,35.3600857 -0.0898442341,34.7674558 0.269532702,34.4022949 L4.56768086,30.0279293 L4.56768086,30.0279293 Z M28.171558,20.7067427 C27.5370719,21.3523311 27.2198288,22.2042052 27.2198288,23.0570879 C27.2198288,23.9099707 27.5370719,24.7618447 28.171558,25.4074331 C28.8060442,26.0530215 29.6432686,26.3758157 30.4814843,26.3758157 C31.3197,26.3758157 32.1569243,26.0530215 32.7914105,25.4074331 L44.4297706,13.5654257 C44.7891476,13.1997604 45.3715861,13.1997604 45.7304673,13.5654257 C46.0898442,13.931091 46.0898442,14.523721 45.7304673,14.8888819 L34.0921072,26.7308893 C33.0982441,27.7421429 31.7896163,28.2475176 30.4814843,28.2475176 C29.1733522,28.2475176 27.8647245,27.7421429 26.8708614,26.7308893 C25.8769983,25.7196356 25.3803145,24.3881096 25.3803145,23.0570879 C25.3803145,21.7260663 25.8769983,20.3945402 26.8708614,19.3832866 L38.5092215,7.5412792 C39.1437077,6.89569082 39.4609508,6.04381679 39.4609508,5.19093402 C39.4609508,4.33805126 39.1437077,3.48617722 38.5092215,2.84058885 C37.8747353,2.19500047 37.037511,1.87220629 36.1992953,1.87220629 C35.9970528,1.87220629 35.7948103,1.89086782 35.595542,1.92869527 L34.1332496,0.440815812 C34.7890506,0.147274848 35.4944208,0 36.1992953,0 C37.5074273,0 38.816055,0.505374649 39.8099182,1.51662831 C40.8037813,2.52788198 41.300465,3.859408 41.300465,5.19042966 C41.300465,6.52145131 40.8037813,7.85297734 39.8099182,8.864231 L28.171558,20.7067427 L28.171558,20.7067427 Z M22.9013572,17.4833402 L34.4143072,5.76893736 C35.0611857,5.11073984 35.0611857,4.03391861 34.4143072,3.37572109 L32.0622471,0.982504807 C31.4153686,0.324307285 30.3570655,0.324307285 29.710187,0.982504807 L18.1977327,12.697412 L22.9013572,17.4833402 L22.9013572,17.4833402 Z M16.6938022,13.8145825 C15.9467939,13.054503 14.7239209,13.054503 13.9769126,13.8145825 L13.9769126,13.8145825 C13.2299043,14.5746619 13.2299043,15.8189326 13.9769126,16.5790121 L19.0865091,21.778016 C19.8335174,22.5380954 21.0563904,22.5380954 21.8033987,21.778016 L21.8033987,21.778016 C22.5504071,21.0179365 22.5504071,19.7736658 21.8033987,19.0135864 L16.6938022,13.8145825 Z" id="Shape"></path>
            </g>
        </g>
    </g>
</svg>