<?xml version="1.0" encoding="UTF-8"?>
<svg width="46px" height="46px" viewBox="0 0 46 46" version="1.1" xmlns="http://www.w3.org/2000/svg" xmlns:xlink="http://www.w3.org/1999/xlink">
    <title>Group</title>
    <g id="Website" stroke="none" stroke-width="1" fill="none" fill-rule="evenodd">
        <g transform="translate(-302, -1800)" fill="#FFFFFF" fill-rule="nonzero" id="Group-5">
            <g transform="translate(302, 1800)" id="Group">
                <path d="M34.3555407,39.8991365 L11.6444593,39.8991365 C8.58788032,39.8991365 6.10109989,37.4123561 6.10109989,34.3553042 L6.10109989,11.6446957 C6.10109989,8.58764388 8.58788032,6.10086345 11.6444593,6.10086345 L34.3555407,6.10086345 C37.4121196,6.10086345 39.8989001,8.58764388 39.8989001,11.6446957 L39.8989001,34.3553043 C39.8989001,37.4123561 37.4121197,39.8991365 34.3555407,39.8991365 Z M11.6444593,8.52191608 C9.92276929,8.52191608 8.52215252,9.92300577 8.52215252,11.6446958 L8.52215252,34.3553043 C8.52215252,36.0769943 9.92276929,37.478084 11.6444593,37.478084 L34.3555407,37.478084 C36.0772307,37.478084 37.4778474,36.0769943 37.4778474,34.3553043 L37.4778474,11.6446957 C37.4778474,9.92300573 36.0772307,8.52191608 34.3555407,8.52191608 L11.6444593,8.52191608 L11.6444593,8.52191608 Z" id="Shape"></path>
                <g transform="translate(10.5273, 0)" id="Path">
                    <path d="M1.21052632,8.52191613 C0.541899659,8.52191613 0,7.98001647 0,7.31138981 L0,1.21052632 C0,0.541899659 0.541899659,0 1.21052632,0 C1.87915297,0 2.42105263,0.541899659 2.42105263,1.21052632 L2.42105263,7.31138981 C2.42105263,7.98001647 1.87915297,8.52191613 1.21052632,8.52191613 Z"></path>
                    <path d="M8.71862666,8.52191613 C8.05,8.52191613 7.50810034,7.98001647 7.50810034,7.31138981 L7.50810034,1.21052632 C7.50810034,0.541899659 8.05,0 8.71862666,0 C9.38725331,0 9.92915297,0.541899659 9.92915297,1.21052632 L9.92915297,7.31138981 C9.92915297,7.98001647 9.38725331,8.52191613 8.71862666,8.52191613 Z"></path>
                    <path d="M16.226727,8.52191613 C15.5581003,8.52191613 15.0162007,7.98001647 15.0162007,7.31138981 L15.0162007,1.21052632 C15.0162007,0.541899659 15.5581003,0 16.226727,0 C16.8953537,0 17.4372533,0.541899659 17.4372533,1.21052632 L17.4372533,7.31138981 C17.4372533,7.98001647 16.8953537,8.52191613 16.226727,8.52191613 Z"></path>
                    <path d="M23.7348273,8.52191613 C23.0662007,8.52191613 22.524301,7.98001647 22.524301,7.31138981 L22.524301,1.21052632 C22.524301,0.541899659 23.0662007,0 23.7348273,0 C24.403454,0 24.9453537,0.541899659 24.9453537,1.21052632 L24.9453537,7.31138981 C24.9453537,7.98001647 24.4034539,8.52191613 23.7348273,8.52191613 Z"></path>
                </g>
                <g transform="translate(0, 10.5273)" id="Path">
                    <path d="M7.31162625,24.9453537 L1.21052632,24.9453537 C0.541899659,24.9453537 0,24.403454 0,23.7348273 C0,23.0662007 0.541899659,22.524301 1.21052632,22.524301 L7.31162625,22.524301 C7.98025291,22.524301 8.52215257,23.0662007 8.52215257,23.7348273 C8.52215257,24.403454 7.98025286,24.9453537 7.31162625,24.9453537 Z"></path>
                    <path d="M7.31162625,17.4372533 L1.21052632,17.4372533 C0.541899659,17.4372533 0,16.8953537 0,16.226727 C0,15.5581003 0.541899659,15.0162007 1.21052632,15.0162007 L7.31162625,15.0162007 C7.98025291,15.0162007 8.52215257,15.5581003 8.52215257,16.226727 C8.52215257,16.8953537 7.98025286,17.4372533 7.31162625,17.4372533 Z"></path>
                    <path d="M7.31162625,9.92915297 L1.21052632,9.92915297 C0.541899659,9.92915297 0,9.38725331 0,8.71862666 C0,8.05 0.541899659,7.50810034 1.21052632,7.50810034 L7.31162625,7.50810034 C7.98025291,7.50810034 8.52215257,8.05 8.52215257,8.71862666 C8.52215257,9.38725331 7.98025286,9.92915297 7.31162625,9.92915297 Z"></path>
                    <path d="M7.31162625,2.42105263 L1.21052632,2.42105263 C0.541899659,2.42105263 0,1.87915297 0,1.21052632 C0,0.541899659 0.541899659,0 1.21052632,0 L7.31162625,0 C7.98025291,0 8.52215257,0.541899659 8.52215257,1.21052632 C8.52215257,1.87915297 7.98025286,2.42105263 7.31162625,2.42105263 Z"></path>
                </g>
                <g transform="translate(10.5273, 37.4781)" id="Path">
                    <path d="M23.7348273,8.52191613 C23.0662007,8.52191613 22.524301,7.98001647 22.524301,7.31138981 L22.524301,1.21052632 C22.524301,0.541899659 23.0662007,0 23.7348273,0 C24.403454,0 24.9453537,0.541899659 24.9453537,1.21052632 L24.9453537,7.31138981 C24.9453537,7.98001647 24.4034539,8.52191613 23.7348273,8.52191613 Z"></path>
                    <path d="M16.226727,8.52191613 C15.5581003,8.52191613 15.0162007,7.98001647 15.0162007,7.31138981 L15.0162007,1.21052632 C15.0162007,0.541899659 15.5581003,0 16.226727,0 C16.8953537,0 17.4372533,0.541899659 17.4372533,1.21052632 L17.4372533,7.31138981 C17.4372533,7.98001647 16.8953537,8.52191613 16.226727,8.52191613 Z"></path>
                    <path d="M8.71862666,8.52191613 C8.05,8.52191613 7.50810034,7.98001647 7.50810034,7.31138981 L7.50810034,1.21052632 C7.50810034,0.541899659 8.05,0 8.71862666,0 C9.38725331,0 9.92915297,0.541899659 9.92915297,1.21052632 L9.92915297,7.31138981 C9.92915297,7.98001647 9.38725331,8.52191613 8.71862666,8.52191613 Z"></path>
                    <path d="M1.21052632,8.52191613 C0.541899659,8.52191613 0,7.98001647 0,7.31138981 L0,1.21052632 C0,0.541899659 0.541899659,0 1.21052632,0 C1.87915297,0 2.42105263,0.541899659 2.42105263,1.21052632 L2.42105263,7.31138981 C2.42105263,7.98001647 1.87915297,8.52191613 1.21052632,8.52191613 Z"></path>
                </g>
                <g transform="translate(37.4778, 10.5273)" id="Path">
                    <path d="M7.31162625,2.42105263 L1.21052632,2.42105263 C0.541899659,2.42105263 0,1.87915297 0,1.21052632 C0,0.541899659 0.541899659,0 1.21052632,0 L7.31162625,0 C7.98025291,0 8.52215257,0.541899659 8.52215257,1.21052632 C8.52215257,1.87915297 7.98025291,2.42105263 7.31162625,2.42105263 Z"></path>
                    <path d="M7.31162625,9.92915297 L1.21052632,9.92915297 C0.541899659,9.92915297 0,9.38725331 0,8.71862666 C0,8.05 0.541899659,7.50810034 1.21052632,7.50810034 L7.31162625,7.50810034 C7.98025291,7.50810034 8.52215257,8.05 8.52215257,8.71862666 C8.52215257,9.38725331 7.98025291,9.92915297 7.31162625,9.92915297 Z"></path>
                    <path d="M7.31162625,17.4372533 L1.21052632,17.4372533 C0.541899659,17.4372533 0,16.8953537 0,16.226727 C0,15.5581003 0.541899659,15.0162007 1.21052632,15.0162007 L7.31162625,15.0162007 C7.98025291,15.0162007 8.52215257,15.5581003 8.52215257,16.226727 C8.52215257,16.8953537 7.98025291,17.4372533 7.31162625,17.4372533 Z"></path>
                    <path d="M7.31162625,24.9453537 L1.21052632,24.9453537 C0.541899659,24.9453537 0,24.403454 0,23.7348273 C0,23.0662007 0.541899659,22.524301 1.21052632,22.524301 L7.31162625,22.524301 C7.98025291,22.524301 8.52215257,23.0662007 8.52215257,23.7348273 C8.52215257,24.403454 7.98025291,24.9453537 7.31162625,24.9453537 Z"></path>
                </g>
                <path d="M30.5267784,34.0342311 L15.4732216,34.0342311 C13.5389803,34.0342311 11.9655325,32.4605469 11.9655325,30.5265419 L11.9655325,15.4734581 C11.9655325,13.5394531 13.5389803,11.9657689 15.4732216,11.9657689 L30.5267784,11.9657689 C32.4610197,11.9657689 34.0344675,13.5394531 34.0344675,15.4734581 L34.0344675,30.5265419 C34.0344675,32.4605469 32.4610197,34.0342311 30.5267784,34.0342311 Z M15.4732216,14.3868216 C14.8741057,14.3868216 14.3865851,14.8743421 14.3865851,15.4734581 L14.3865851,30.5265419 C14.3865851,31.1256579 14.8741057,31.6131784 15.4732216,31.6131784 L30.5267784,31.6131784 C31.1258943,31.6131784 31.6134149,31.1256579 31.6134149,30.5265419 L31.6134149,15.4734581 C31.6134149,14.8743421 31.1258943,14.3868216 30.5267784,14.3868216 L15.4732216,14.3868216 Z" id="Shape"></path>
            </g>
        </g>
    </g>
</svg>