<?xml version="1.0" encoding="UTF-8"?>
<svg width="24px" height="24px" viewBox="0 0 24 24" version="1.1" xmlns="http://www.w3.org/2000/svg" xmlns:xlink="http://www.w3.org/1999/xlink">
    <title>wifi-good-insecure</title>
    <g id="wifi-good-insecure" stroke="none" stroke-width="1" fill="none" fill-rule="evenodd">
        <g id="wifi_password_FILL1_wght400_GRAD0_opsz24" transform="translate(0.3, 2)" fill="#FFFFFF" fill-rule="nonzero">
            <path d="M11.3763158,17 C10.6763158,17 10.0846491,16.7583333 9.60131579,16.275 C9.11798246,15.7916667 8.87631579,15.2 8.87631579,14.5 C8.87631579,13.8 9.11798246,13.2083333 9.60131579,12.725 C10.0846491,12.2416667 10.6763158,12 11.3763158,12 C12.0763158,12 12.6679825,12.2416667 13.1513158,12.725 C13.6346491,13.2083333 13.8763158,13.8 13.8763158,14.5 C13.8763158,15.2 13.6346491,15.7916667 13.1513158,16.275 C12.6679825,16.7583333 12.0763158,17 11.3763158,17 Z M11.3763158,6 C12.6263158,6 13.8138158,6.2 14.9388158,6.6 C16.0638158,7 17.0846491,7.55 18.0013158,8.25 C18.3346491,8.5 18.5054825,8.82916667 18.5138158,9.2375 C18.5221491,9.64583333 18.3763158,10 18.0763158,10.3 C17.7929825,10.5833333 17.4429825,10.7291667 17.0263158,10.7375 C16.6096491,10.7458333 16.2346491,10.6333333 15.9013158,10.4 C15.2679825,9.96666667 14.5679825,9.625 13.8013158,9.375 C13.0346491,9.125 12.2263158,9 11.3763158,9 C10.5263158,9 9.71798246,9.125 8.95131579,9.375 C8.18464912,9.625 7.48464912,9.96666667 6.85131579,10.4 C6.51798246,10.6333333 6.14298246,10.7416667 5.72631579,10.725 C5.30964912,10.7083333 4.95964912,10.5583333 4.67631579,10.275 C4.39298246,9.975 4.25131579,9.62083333 4.25131579,9.2125 C4.25131579,8.80416667 4.41798246,8.475 4.75131579,8.225 C5.66798246,7.525 6.68881579,6.97916667 7.81381579,6.5875 C8.93881579,6.19583333 10.1263158,6 11.3763158,6 Z M11.3763158,0 C13.4596491,0 15.4221491,0.341666667 17.2638158,1.025 C19.1054825,1.70833333 20.7596491,2.675 22.2263158,3.925 C22.5596491,4.20833333 22.7346491,4.55833333 22.7513158,4.975 C22.7679825,5.39166667 22.6263158,5.75 22.3263158,6.05 C22.0429825,6.33333333 21.6929825,6.47916667 21.2763158,6.4875 C20.8596491,6.49583333 20.4846491,6.36666667 20.1513158,6.1 C18.9513158,5.11666667 17.6054825,4.35416667 16.1138158,3.8125 C14.6221491,3.27083333 13.0429825,3 11.3763158,3 C9.70964912,3 8.13048246,3.27083333 6.63881579,3.8125 C5.14714912,4.35416667 3.80131579,5.11666667 2.60131579,6.1 C2.26798246,6.36666667 1.89298246,6.49583333 1.47631579,6.4875 C1.05964912,6.47916667 0.709649123,6.33333333 0.426315789,6.05 C0.126315789,5.75 -0.0153508772,5.39166667 0.00131578947,4.975 C0.0179824561,4.55833333 0.192982456,4.20833333 0.526315789,3.925 C1.99298246,2.675 3.64714912,1.70833333 5.48881579,1.025 C7.33048246,0.341666667 9.29298246,0 11.3763158,0 Z" id="Shape"></path>
        </g>
    </g>
</svg>