<?xml version="1.0" encoding="UTF-8"?>
<svg width="24px" height="24px" viewBox="0 0 24 24" version="1.1" xmlns="http://www.w3.org/2000/svg" xmlns:xlink="http://www.w3.org/1999/xlink">
    <title>wifi-poor-insecure</title>
    <g id="wifi-poor-insecure" stroke="none" stroke-width="1" fill="none" fill-rule="evenodd">
        <g id="wifi_password_FILL1_wght400_GRAD0_opsz24" transform="translate(4.5513, 8)" fill="#FFFFFF" fill-rule="nonzero">
            <path d="M7.125,11 C6.425,11 5.83333333,10.7583333 5.35,10.275 C4.86666667,9.79166667 4.625,9.2 4.625,8.5 C4.625,7.8 4.86666667,7.20833333 5.35,6.725 C5.83333333,6.24166667 6.425,6 7.125,6 C7.825,6 8.41666667,6.24166667 8.9,6.725 C9.38333333,7.20833333 9.625,7.8 9.625,8.5 C9.625,9.2 9.38333333,9.79166667 8.9,10.275 C8.41666667,10.7583333 7.825,11 7.125,11 Z M7.125,0 C8.375,0 9.5625,0.2 10.6875,0.6 C11.8125,1 12.8333333,1.55 13.75,2.25 C14.0833333,2.5 14.2541667,2.82916667 14.2625,3.2375 C14.2708333,3.64583333 14.125,4 13.825,4.3 C13.5416667,4.58333333 13.1916667,4.72916667 12.775,4.7375 C12.3583333,4.74583333 11.9833333,4.63333333 11.65,4.4 C11.0166667,3.96666667 10.3166667,3.625 9.55,3.375 C8.78333333,3.125 7.975,3 7.125,3 C6.275,3 5.46666667,3.125 4.7,3.375 C3.93333333,3.625 3.23333333,3.96666667 2.6,4.4 C2.26666667,4.63333333 1.89166667,4.74166667 1.475,4.725 C1.05833333,4.70833333 0.708333333,4.55833333 0.425,4.275 C0.141666667,3.975 0,3.62083333 0,3.2125 C0,2.80416667 0.166666667,2.475 0.5,2.225 C1.41666667,1.525 2.4375,0.979166667 3.5625,0.5875 C4.6875,0.195833333 5.875,0 7.125,0 Z" id="Shape"></path>
        </g>
    </g>
</svg>